<svg id="services" xmlns="http://www.w3.org/2000/svg" width="34" height="38" viewBox="0 0 34 38">
  <defs>
    <style>
      .cls-1 {
        fill: #f69165;
        fill-rule: evenodd;
      }
    </style>
  </defs>
  <g id="Group_200_copy" data-name="Group 200 copy">
    <g id="Group_199_copy_3" data-name="Group 199 copy 3">
      <path id="Forma_1" data-name="Forma 1" class="cls-1" d="M32.693,29.007A37.094,37.094,0,0,1,27.325,27.9q-0.292-.086-0.567-0.174a30.913,30.913,0,0,0,1.4-6.591C31.137,20.091,34,18.937,34,16.671c0-2.766-2.589-4.165-3.764-4.657L31,9.628a7.369,7.369,0,0,0,.335-2.408A7.486,7.486,0,0,0,23.872,0h-0.13A4.761,4.761,0,0,0,19.72,2.277a3.213,3.213,0,0,1-5.443,0A4.76,4.76,0,0,0,10.255,0h-0.13A7.486,7.486,0,0,0,2.658,7.22a7.383,7.383,0,0,0,.336,2.413l0.767,2.383C2.587,12.509,0,13.907,0,16.671c0,2.265,2.861,3.418,5.839,4.463a30.915,30.915,0,0,0,1.4,6.591c-0.18.058-.365,0.115-0.555,0.171a37.178,37.178,0,0,1-5.381,1.111,0.591,0.591,0,0,0,.069,1.178,0.6,0.6,0,0,0,.07,0,37.723,37.723,0,0,0,5.567-1.148c0.225-.066.443-0.134,0.655-0.2,0.062,0.145.126,0.29,0.191,0.429l3.41,7.311A2.1,2.1,0,0,0,13.224,38h0.02a2.065,2.065,0,0,0,1.46-.6,2.038,2.038,0,0,0,.614-1.463,0.594,0.594,0,0,0-.023-0.162c-0.675-2.351-2.029-8.98-.206-11.379A2.24,2.24,0,0,1,17,23.509a2.2,2.2,0,0,1,1.87.87c1.817,2.378.5,9.007-.164,11.359a0.591,0.591,0,0,0-.022.16,2.125,2.125,0,0,0,1.9,2.094C20.643,38,20.7,38,20.759,38a2.065,2.065,0,0,0,1.959-1.388l3.426-7.356c0.064-.137.127-0.28,0.188-0.424,0.212,0.069.43,0.137,0.655,0.2a37.731,37.731,0,0,0,5.567,1.148,0.606,0.606,0,0,0,.071,0A0.591,0.591,0,0,0,32.693,29.007Zm-7.055-1.679c-2.178-.854-3.355-1.86-3.355-2.9,0-1.162,2.354-2.066,4.63-2.862A28.817,28.817,0,0,1,25.638,27.328Zm7.171-10.657c0,1.365-2.215,2.334-4.534,3.167,0.049-.7.074-1.363,0.074-1.967L29.87,13.15C30.852,13.583,32.809,14.695,32.809,16.671Zm-31.619,0c0-1.975,1.955-3.087,2.937-3.521l1.521,4.722c0,0.6.025,1.266,0.074,1.966C3.4,19,1.191,18.036,1.191,16.671Zm5.895,4.9c2.277,0.8,4.632,1.7,4.632,2.863,0,1.037-1.177,2.043-3.355,2.9A28.79,28.79,0,0,1,7.085,21.568Zm17.978,7.19-3.439,7.386a0.509,0.509,0,0,0-.026.065,0.882,0.882,0,0,1-.915.6,0.944,0.944,0,0,1-.807-0.847c0.273-1,2.378-9.111-.059-12.3A3.362,3.362,0,0,0,17,22.327a3.4,3.4,0,0,0-2.86,1.358C11.7,26.9,13.845,35,14.125,36.009a0.869,0.869,0,0,1-.259.553,0.888,0.888,0,0,1-.631.255,0.925,0.925,0,0,1-.846-0.648,0.637,0.637,0,0,0-.026-0.066L8.94,28.763c-0.051-.108-0.1-0.22-0.149-0.333,2.733-1.071,4.117-2.413,4.117-4,0-2.091-2.891-3.1-5.958-4.163-0.049-.574-0.082-1.129-0.1-1.649A34,34,0,0,0,17,20.217a33.461,33.461,0,0,0,7.156-.806,0.591,0.591,0,1,0-.257-1.154q-0.438.1-.874,0.181l1.3-3.271a0.59,0.59,0,0,0-.335-0.767,0.6,0.6,0,0,0-.772.333l-1.563,3.941A31,31,0,0,1,17,19.036a31.421,31.421,0,0,1-4.738-.372L10.7,14.733A0.6,0.6,0,0,0,9.93,14.4a0.59,0.59,0,0,0-.335.767l1.292,3.258a30.944,30.944,0,0,1-4.166-1.1L5.07,12.2h0L4.13,9.278a6.212,6.212,0,0,1-.281-2.026,6.293,6.293,0,0,1,6.277-6.071H10.25A3.577,3.577,0,0,1,13.266,2.9a4.407,4.407,0,0,0,7.465,0,3.577,3.577,0,0,1,3.016-1.719h0.125a6.294,6.294,0,0,1,6.278,6.071,6.2,6.2,0,0,1-.28,2.022L27.188,17.6a0.623,0.623,0,0,0-.028.189c0,0.746-.034,1.588-0.11,2.48-3.067,1.064-5.957,2.072-5.957,4.162,0,1.588,1.384,2.929,4.118,4Q25.138,28.6,25.063,28.758Zm-1.2-25.535H23.841a0.591,0.591,0,1,1,0-1.181h0.024A5.368,5.368,0,0,1,29.218,7.22a0.593,0.593,0,0,1-.579.606H28.622a0.593,0.593,0,0,1-.594-0.576A4.176,4.176,0,0,0,23.862,3.223ZM29.043,8.6a0.59,0.59,0,0,1,0,.837,0.6,0.6,0,0,1-1.016-.419,0.593,0.593,0,0,1,.595-0.591A0.6,0.6,0,0,1,29.043,8.6Z"/>
    </g>
  </g>
</svg>
