<svg id="services" xmlns="http://www.w3.org/2000/svg" width="41" height="41" viewBox="0 0 41 41">
  <defs>
    <style>
      .cls-1 {
        fill: #f69165;
        fill-rule: evenodd;
      }
    </style>
  </defs>
  <g id="Group_199_copy" data-name="Group 199 copy">
    <path id="Forma_1" data-name="Forma 1" class="cls-1" d="M12.61,31.254c0.955,1.4,1.761,2.047,2.536,2.047a1.481,1.481,0,0,0,1.385-1.161c0.307-.863.582-1.848,0.873-2.892,0.708-2.539,1.677-6.017,3.047-6.017h0.1c0.59,0,1.136.553,1.671,1.691a28.109,28.109,0,0,1,1.409,4.35c0.278,1.036.542,2.016,0.839,2.865a1.464,1.464,0,0,0,1.37,1.156c0.773,0,1.578-.66,2.535-2.077A27.352,27.352,0,0,0,30.685,26.8a30.246,30.246,0,0,0,2.7-10.749,8.183,8.183,0,0,0-1.994-5.419,6.913,6.913,0,0,0-5.256-2.394,10.092,10.092,0,0,0-4.52,1.639,9.945,9.945,0,0,1-1.116.575,9.929,9.929,0,0,1-1.111-.574,10.05,10.05,0,0,0-4.525-1.641,6.912,6.912,0,0,0-5.255,2.394,8.182,8.182,0,0,0-1.994,5.419A30.193,30.193,0,0,0,10.3,26.878,26.409,26.409,0,0,0,12.61,31.254ZM14.864,9.738a6.63,6.63,0,0,1,3.309,1.174c0.164,0.1.4,0.292,0.633,0.472,0.093,0.073.185,0.145,0.271,0.21a11.827,11.827,0,0,0,1.1.757,5.733,5.733,0,0,0,.689.37,8.372,8.372,0,0,0,4.875.457,3.288,3.288,0,0,0,1.266-.477,5.335,5.335,0,0,0-1.34-.09,16.211,16.211,0,0,1-3-.493,2.3,2.3,0,0,1-1.035-.476,1.968,1.968,0,0,1,.71-0.563,7.99,7.99,0,0,1,3.8-1.34c3.612,0,5.77,3.209,5.77,6.31A29.158,29.158,0,0,1,29.328,26.2a26.251,26.251,0,0,1-2.177,4.167c-0.673,1-1.068,1.443-1.24,1.389a0.187,0.187,0,0,1-.094-0.108c-0.278-.792-0.49-1.756-0.763-2.771a29.188,29.188,0,0,0-1.5-4.6c-0.805-1.714-1.788-2.546-3.006-2.546h-0.1c-1.176,0-2.137.826-2.94,2.527a30.486,30.486,0,0,0-1.531,4.589c-0.283,1.016-.5,1.966-0.784,2.777a0.29,0.29,0,0,1-.114.147c-0.17.056-.57-0.369-1.256-1.371a25.273,25.273,0,0,1-2.168-4.119,29.082,29.082,0,0,1-2.564-10.23C9.094,12.946,11.252,9.738,14.864,9.738Zm25.542,4.63s-1.142.322-1.521,0.435c-0.171.051-.184-0.048-0.184-0.048A18.856,18.856,0,0,0,33.165,5.1,18.625,18.625,0,0,0,7.544,5.11a19.207,19.207,0,0,0-5.97,12.508,1.027,1.027,0,0,0,.932,1.111c0.027,0,.054,0,0.081,0A1.023,1.023,0,0,0,3.6,17.782,17,17,0,0,1,20.363,2.062,16.875,16.875,0,0,1,36.749,15.31a0.084,0.084,0,0,1-.041.115c-0.511.16-2.057,0.587-2.057,0.587a0.418,0.418,0,0,0-.166.793l3.884,3.266a0.554,0.554,0,0,0,.942-0.269l1.643-4.844C41.107,14.5,40.861,14.239,40.406,14.368Zm-1.84,7.9a1.02,1.02,0,0,0-1.093.947A17,17,0,0,1,20.711,38.933,16.863,16.863,0,0,1,4.325,25.687a0.109,0.109,0,0,1,.055-0.128C4.961,25.388,6.349,25,6.349,25A0.418,0.418,0,0,0,6.514,24.2L2.631,20.937a0.553,0.553,0,0,0-.942.269L0.046,26.049c-0.154.454,0.092,0.72,0.547,0.59,0,0,1.1-.317,1.676-0.478,0.07-.02.1,0.111,0.1,0.111a18.731,18.731,0,0,0,31.158,9.614A19.207,19.207,0,0,0,39.5,23.377,1.027,1.027,0,0,0,38.566,22.267Z"/>
  </g>
</svg>
