<svg id="services" xmlns="http://www.w3.org/2000/svg" width="34" height="44" viewBox="0 0 34 44">
  <defs>
    <style>
      .cls-1 {
        fill: #f69165;
        fill-rule: evenodd;
      }
    </style>
  </defs>
  <g id="Group_200_copy" data-name="Group 200 copy">
    <g id="Group_199_copy_2" data-name="Group 199 copy 2">
      <path id="Forma_1" data-name="Forma 1" class="cls-1" d="M34,8.555A8.871,8.871,0,0,0,25.146,0H24.992a5.645,5.645,0,0,0-4.767,2.7,3.809,3.809,0,0,1-6.452,0A5.645,5.645,0,0,0,9.007,0H8.853A8.872,8.872,0,0,0,0,8.555a8.741,8.741,0,0,0,.4,2.858L3.58,21.279h0a0.665,0.665,0,0,0,.039.093l0.01,0.019a0.7,0.7,0,0,0,.05.08l0.013,0.018a0.666,0.666,0,0,0,.06.069l0.005,0.005a0.633,0.633,0,0,0,.075.062l0.017,0.012a0.606,0.606,0,0,0,.083.05l0.01,0a0.568,0.568,0,0,0,.053.024,35.079,35.079,0,0,0,5.817,1.557v3.459A0.7,0.7,0,0,0,9.7,28.107l0.106,0.027v2.627A0.7,0.7,0,0,0,9.7,32.135l0.106,0.026V34.79A0.7,0.7,0,0,0,9.7,36.163L9.811,36.19v3.219a0.69,0.69,0,0,0,.054.317c0,0.01.008,0.019,0.012,0.028s0.013,0.026.02,0.038,0.012,0.024.019,0.036l2.091,3.349a0.7,0.7,0,0,0,.447.315,20.556,20.556,0,0,0,9.088,0,0.708,0.708,0,0,0,.448-0.316l2.09-3.352a0.7,0.7,0,0,0,.106-0.369v-3.27l0.107-.026a0.7,0.7,0,0,0-.107-1.374V32.154l0.107-.027a0.7,0.7,0,0,0-.107-1.374V28.126l0.107-.027a0.7,0.7,0,0,0-.107-1.373V23.275a35.032,35.032,0,0,0,5.82-1.557h0l0.028-.013a0.693,0.693,0,0,0,.143-0.084l0.005,0c0.013-.01.026-0.021,0.038-0.032l0.014-.013,0.028-.029,0.019-.022,0.02-.024,0.023-.03,0.013-.021c0.008-.012.016-0.024,0.023-0.037l0.009-.018a0.546,0.546,0,0,0,.029-0.063c0.006-.015.012-0.029,0.017-0.044v0l3.18-9.871A8.737,8.737,0,0,0,34,8.555Zm-11.222,30.7-1.827,2.928a19.027,19.027,0,0,1-7.9,0l-1.07-1.716A28.535,28.535,0,0,0,17,40.928c0.758,0,1.539-.034,2.322-0.1a0.7,0.7,0,1,0-.123-1.4c-0.743.065-1.483,0.1-2.2,0.1a27.536,27.536,0,0,1-5.778-.636V36.513a28.814,28.814,0,0,0,5.778.6,28.655,28.655,0,0,0,5.776-.61v2.748Zm0-4.179a27.4,27.4,0,0,1-5.776.64,27.5,27.5,0,0,1-5.778-.634v-2.6a28.815,28.815,0,0,0,5.778.6,28.677,28.677,0,0,0,5.776-.61v2.6Zm0-4.029A27.4,27.4,0,0,1,17,31.687a27.473,27.473,0,0,1-5.778-.634v-2.6a28.793,28.793,0,0,0,5.778.6,28.652,28.652,0,0,0,5.776-.61v2.6Zm0-4.028A27.4,27.4,0,0,1,17,27.659a27.473,27.473,0,0,1-5.778-.634V23.511A38.978,38.978,0,0,0,17,23.954a38.944,38.944,0,0,0,5.776-.443v3.506Zm9.48-16.03-3.073,9.538a36.7,36.7,0,0,1-5.043,1.325l1.54-3.88a0.7,0.7,0,0,0-.4-0.908,0.706,0.706,0,0,0-.915.395l-1.854,4.672A37.209,37.209,0,0,1,17,22.553a37.324,37.324,0,0,1-5.616-.44L9.536,17.456a0.706,0.706,0,0,0-.915-0.395,0.7,0.7,0,0,0-.4.908l1.532,3.86a36.593,36.593,0,0,1-4.938-1.3L1.746,10.991a7.344,7.344,0,0,1-.334-2.4A7.458,7.458,0,0,1,8.853,1.4H9a4.24,4.24,0,0,1,3.575,2.037,5.226,5.226,0,0,0,8.848,0A4.241,4.241,0,0,1,25,1.4h0.148a7.458,7.458,0,0,1,7.441,7.192A7.342,7.342,0,0,1,32.255,10.987Z"/>
    </g>
  </g>
</svg>
