<svg id="services" xmlns="http://www.w3.org/2000/svg" width="34" height="43" viewBox="0 0 34 43">
  <defs>
    <style>
      .cls-1 {
        fill: #f69165;
        fill-rule: evenodd;
      }
    </style>
  </defs>
  <g id="Group_199_copy_2" data-name="Group 199 copy 2">
    <path id="Forma_1" data-name="Forma 1" class="cls-1" d="M33.534,6.476l-4.808-1.2-1.2-4.81a0.614,0.614,0,0,0-1.193,0l-0.952,3.81a7.637,7.637,0,0,0-3.492-.823h-0.1a4.913,4.913,0,0,0-4.156,2.371,3.309,3.309,0,0,1-5.624,0A4.913,4.913,0,0,0,7.853,3.451H7.718A7.727,7.727,0,0,0,.35,13.477l2.742,8.574A31.941,31.941,0,0,0,5.377,33.9L8.9,41.512A2.17,2.17,0,0,0,10.92,43a2.143,2.143,0,0,0,2.163-2.144,0.606,0.606,0,0,0-.024-0.168c-0.7-2.448-2.1-9.347-.213-11.844a2.308,2.308,0,0,1,1.974-.923,2.265,2.265,0,0,1,1.932.9c1.878,2.475.514,9.373-.169,11.822a0.613,0.613,0,0,0-.023.166,2.206,2.206,0,0,0,1.965,2.179C18.587,43,18.647,43,18.706,43a2.135,2.135,0,0,0,2.024-1.444L24.27,33.9a31.958,31.958,0,0,0,2.28-11.847l2.743-8.578a7.72,7.72,0,0,0,.346-2.506,7.614,7.614,0,0,0-.391-2.224L33.534,7.67A0.616,0.616,0,0,0,33.534,6.476ZM28.1,7.761a0.614,0.614,0,0,0-.478.455L26.928,11l-0.235-.94a0.615,0.615,0,0,0-1.193.3l0.831,3.327a0.615,0.615,0,0,0,1.193,0l0.835-3.341a6.507,6.507,0,0,1-.238,2.76l-2.771,8.666a0.649,0.649,0,0,0-.029.2,30.646,30.646,0,0,1-2.166,11.418L19.6,41.067a0.619,0.619,0,0,0-.027.068,0.909,0.909,0,0,1-.946.628,0.977,0.977,0,0,1-.834-0.881c0.282-1.044,2.457-9.482-.061-12.8a3.466,3.466,0,0,0-2.912-1.392A3.508,3.508,0,0,0,11.865,28.1c-2.522,3.344-.3,11.779-0.014,12.826a0.913,0.913,0,0,1-.919.84,0.956,0.956,0,0,1-.874-0.673,0.6,0.6,0,0,0-.027-0.068L6.493,33.387A30.1,30.1,0,0,1,4.334,22.827a34.847,34.847,0,0,0,10.486,1.665,34.394,34.394,0,0,0,7.394-.838,0.615,0.615,0,0,0-.265-1.2q-0.452.1-.9,0.188l1.341-3.4a0.615,0.615,0,0,0-1.144-.451l-1.616,4.1a31.87,31.87,0,0,1-4.807.376,32.193,32.193,0,0,1-4.9-.386L8.314,18.785a0.615,0.615,0,0,0-1.144.451l1.335,3.391a31.522,31.522,0,0,1-4.3-1.146L1.522,13.106A6.5,6.5,0,0,1,7.747,4.68h0.1a3.69,3.69,0,0,1,3.117,1.789,4.537,4.537,0,0,0,7.714,0,3.69,3.69,0,0,1,3.116-1.789h0.129a6.421,6.421,0,0,1,2.871.677L20.322,6.476a0.615,0.615,0,0,0,0,1.194l3.9,0.974a0.615,0.615,0,0,0,.3-1.194l-1.512-.378,2.749-.687a0.616,0.616,0,0,0,.478-0.455l0.7-2.782L27.615,5.9a0.615,0.615,0,0,0,.454.479l2.781,0.7Z"/>
  </g>
</svg>
