<svg id="welcome_to_dental" data-name="welcome to dental" xmlns="http://www.w3.org/2000/svg" width="40" height="48" viewBox="0 0 40 48">
  <defs>
    <style>
      .cls-1 {
        fill: #f69165;
        fill-rule: evenodd;
      }
    </style>
  </defs>
  <g id="Group_13_copy" data-name="Group 13 copy">
    <g id="tooth_extraction_copy" data-name="tooth extraction copy">
      <g id="tooth_extraction" data-name="tooth extraction">
        <path id="Forma_1" data-name="Forma 1" class="cls-1" d="M39.249,19.822H28.284V19.017H39.249a0.746,0.746,0,1,0,0-1.493H36l1.725-5.36a9.339,9.339,0,0,0,.423-3.043A9.451,9.451,0,0,0,28.677,0H28.556a6.012,6.012,0,0,0-5.076,2.877,4.054,4.054,0,0,1-6.87,0A6.012,6.012,0,0,0,11.533,0H11.369A9.452,9.452,0,0,0,1.944,9.121a9.322,9.322,0,0,0,.425,3.048l1.723,5.355H0.75a0.746,0.746,0,1,0,0,1.493H11.7v0.805H0.75a0.747,0.747,0,1,0,0,1.494H5.312l0.405,1.259c0,4.073.872,10.266,2.792,14.386l4.3,9.235A2.649,2.649,0,0,0,15.28,48H15.3a2.605,2.605,0,0,0,1.842-.754,2.576,2.576,0,0,0,.775-1.849,0.737,0.737,0,0,0-.029-0.2c-0.852-2.972-2.558-11.348-.26-14.375A2.827,2.827,0,0,1,20.044,29.7a2.775,2.775,0,0,1,2.36,1.1c2.294,3,.628,11.376-0.207,14.349a0.74,0.74,0,0,0-.028.2,2.684,2.684,0,0,0,2.4,2.645C24.645,48,24.718,48,24.79,48a2.607,2.607,0,0,0,2.472-1.753l4.324-9.292c1.915-4.115,2.782-10.3,2.784-14.379l0.405-1.259h4.473A0.747,0.747,0,1,0,39.249,19.822Zm-33.58-2.3L3.8,11.719A7.841,7.841,0,0,1,3.446,9.16a7.947,7.947,0,0,1,7.959-7.668h0.122a4.516,4.516,0,0,1,3.807,2.173,5.561,5.561,0,0,0,9.422,0,4.515,4.515,0,0,1,3.806-2.173H28.72A7.946,7.946,0,0,1,36.643,9.16a7.842,7.842,0,0,1-.354,2.554l-1.87,5.809H28.284V12.069a0.749,0.749,0,0,0-.751-0.747h-5.28a0.749,0.749,0,0,0-.751.747v0.4H18.434l0-.407a0.749,0.749,0,0,0-.751-0.742H12.453a0.749,0.749,0,0,0-.751.747v5.455H5.669Zm16.584,7.351H18.439V13.965H21.5v8.324a0.751,0.751,0,0,0,1.5,0V13.242c0-.008,0-0.016,0-0.024v-0.4h3.778V26.024H23v-0.4A0.749,0.749,0,0,0,22.253,24.875ZM13.2,12.815h3.73l0,0.407v12.8H13.2V12.815h0Zm-1.5,8.5V23.15a37.789,37.789,0,0,1-4.63-1.267l-0.183-.567H11.7Zm21.2,0.916a0.8,0.8,0,0,0-.036.239c0.014,3.906-.808,9.908-2.645,13.856l-4.341,9.33a0.717,0.717,0,0,0-.033.083,1.112,1.112,0,0,1-1.155.763,1.191,1.191,0,0,1-1.018-1.07c0.345-1.267,3-11.509-.075-15.54A4.244,4.244,0,0,0,20.044,28.2a4.3,4.3,0,0,0-3.61,1.715c-3.081,4.058-.371,14.3-0.018,15.568a1.1,1.1,0,0,1-.327.7,1.113,1.113,0,0,1-.785.321H15.294a1.169,1.169,0,0,1-1.067-.817,0.7,0.7,0,0,0-.033-0.083L9.872,36.333c-1.683-3.612-2.516-8.941-2.637-12.817A41.192,41.192,0,0,0,11.7,24.675v2.1a0.749,0.749,0,0,0,.751.747h5.235a0.749,0.749,0,0,0,.751-0.747v-0.4H21.5v0.4a0.749,0.749,0,0,0,.751.747h5.28a0.749,0.749,0,0,0,.751-0.747V24.686c0.265-.053.53-0.108,0.793-0.166a0.747,0.747,0,1,0-.324-1.458l-0.469.1V21.316H33.2Z"/>
      </g>
    </g>
  </g>
</svg>
